<mxfile host="65bd71144e">
    <diagram id="4FBPRlALahyoClRC6oCo" name="Page-1">
        <mxGraphModel dx="1280" dy="1558" grid="1" gridSize="10" guides="1" tooltips="1" connect="1" arrows="1" fold="1" page="1" pageScale="1" pageWidth="850" pageHeight="1100" math="0" shadow="0">
            <root>
                <mxCell id="0"/>
                <mxCell id="1" parent="0"/>
                <mxCell id="2" value="逻辑结构" style="swimlane;whiteSpace=wrap;html=1;fillColor=#FFFF66;" vertex="1" parent="1">
                    <mxGeometry x="120" y="370" width="200" height="200" as="geometry"/>
                </mxCell>
                <mxCell id="4" value="集合结构" style="whiteSpace=wrap;html=1;" vertex="1" parent="2">
                    <mxGeometry x="10" y="30" width="150" height="40" as="geometry"/>
                </mxCell>
                <mxCell id="7" value="图形结构" style="whiteSpace=wrap;html=1;" vertex="1" parent="2">
                    <mxGeometry x="10" y="150" width="150" height="40" as="geometry"/>
                </mxCell>
                <mxCell id="6" value="树形结构" style="whiteSpace=wrap;html=1;" vertex="1" parent="2">
                    <mxGeometry x="10" y="110" width="150" height="40" as="geometry"/>
                </mxCell>
                <mxCell id="5" value="线性结构" style="whiteSpace=wrap;html=1;" vertex="1" parent="2">
                    <mxGeometry x="10" y="70" width="150" height="40" as="geometry"/>
                </mxCell>
                <mxCell id="3" value="物理结构" style="swimlane;whiteSpace=wrap;html=1;fillColor=#66B2FF;" vertex="1" parent="1">
                    <mxGeometry x="360" y="370" width="200" height="200" as="geometry"/>
                </mxCell>
                <mxCell id="9" value="顺序存储结构" style="whiteSpace=wrap;html=1;" vertex="1" parent="3">
                    <mxGeometry x="10" y="30" width="150" height="40" as="geometry"/>
                </mxCell>
                <mxCell id="10" value="链式存储结构" style="whiteSpace=wrap;html=1;" vertex="1" parent="3">
                    <mxGeometry x="10" y="70" width="150" height="40" as="geometry"/>
                </mxCell>
            </root>
        </mxGraphModel>
    </diagram>
</mxfile>